<?xml version="1.0" standalone="no"?>
<!DOCTYPE svg PUBLIC "-//W3C//DTD SVG 20010904//EN"
 "http://www.w3.org/TR/2001/REC-SVG-20010904/DTD/svg10.dtd">
<svg version="1.0" xmlns="http://www.w3.org/2000/svg"
 width="608.000000pt" height="608.000000pt" viewBox="0 0 608.000000 608.000000"
 preserveAspectRatio="xMidYMid meet">
<metadata>
Created by potrace 1.11, written by Peter Selinger 2001-2013
</metadata>
<g transform="translate(0.000000,608.000000) scale(0.100000,-0.100000)"
fill="#000000" stroke="none">
<path d="M5342 6068 c-7 -7 -12 -8 -12 -4 0 5 -7 3 -15 -4 -8 -7 -15 -10 -15
-6 0 4 -13 0 -30 -9 -16 -8 -32 -15 -35 -15 -10 1 -60 -13 -70 -19 -5 -3 -12
-6 -15 -7 -20 -4 -67 -18 -75 -23 -5 -3 -14 -6 -20 -7 -15 -3 -1016 -334
-1040 -344 -11 -5 -78 -27 -150 -50 -249 -81 -335 -112 -335 -125 0 -7 -10
-34 -22 -61 -12 -27 -21 -52 -20 -56 1 -5 -2 -8 -8 -8 -5 0 -10 -7 -10 -15 0
-8 -4 -23 -10 -33 -11 -21 -53 -114 -90 -202 -15 -36 -62 -147 -105 -247 l-78
-183 -61 0 c-34 -1 -605 -2 -1271 -3 l-1210 -2 -2 -35 c-1 -19 -2 -37 -3 -40
-4 -17 -4 -180 0 -180 3 0 3 -27 0 -61 -3 -33 -2 -63 2 -65 5 -3 6 -9 3 -14
-6 -9 -7 -147 -2 -205 l2 -30 170 -1 c94 -1 175 -2 181 -3 12 -1 19 -34 29
-136 3 -33 7 -71 10 -85 5 -28 11 -71 21 -150 3 -30 8 -68 10 -85 3 -16 7 -46
9 -65 2 -19 6 -55 9 -80 11 -78 16 -113 21 -165 3 -27 9 -66 12 -85 4 -19 7
-46 9 -60 1 -14 5 -46 8 -72 3 -27 9 -69 12 -95 3 -27 8 -59 10 -73 2 -14 6
-50 9 -80 3 -30 7 -62 10 -70 2 -8 7 -44 10 -80 4 -36 9 -76 11 -90 2 -14 7
-45 9 -70 3 -25 8 -61 11 -80 4 -19 8 -51 9 -70 2 -19 6 -55 10 -80 3 -25 8
-65 11 -90 2 -25 7 -56 9 -70 3 -14 7 -49 11 -78 3 -29 7 -63 10 -75 2 -12 7
-47 9 -77 3 -30 8 -66 10 -80 5 -27 15 -107 20 -155 1 -16 5 -46 9 -65 3 -19
8 -55 11 -80 2 -25 9 -81 15 -125 6 -44 13 -102 16 -130 3 -27 7 -57 9 -65 2
-8 7 -42 10 -75 4 -33 8 -71 11 -85 2 -14 7 -51 10 -82 3 -32 7 -68 9 -80 3
-12 7 -44 11 -72 3 -28 7 -62 10 -76 3 -22 8 -65 18 -150 2 -14 6 -47 10 -75
3 -27 8 -66 10 -85 3 -19 7 -48 9 -65 3 -16 8 -52 11 -80 4 -27 9 -61 12 -75
l4 -25 1223 2 c672 1 1238 2 1258 3 l36 0 7 58 c4 31 9 71 11 87 2 17 7 48 9
70 3 22 8 58 11 80 3 22 8 60 11 85 3 25 7 56 9 70 2 14 6 43 9 65 3 22 8 65
12 95 4 30 7 65 7 78 1 12 5 22 10 22 4 0 5 5 2 10 -4 6 -2 43 4 83 6 39 13
95 16 122 6 52 13 102 20 145 2 14 6 50 10 81 3 31 7 65 9 75 4 20 17 123 21
164 6 55 16 136 20 150 2 8 7 44 10 80 4 36 9 72 10 81 2 9 6 40 10 70 3 30 8
65 10 79 2 14 7 50 10 80 3 30 7 66 10 80 2 14 7 50 11 80 3 30 9 75 13 101 4
25 7 56 6 67 -1 12 1 22 4 22 3 0 6 15 7 33 0 17 4 50 7 72 4 22 9 63 12 90 3
28 7 59 9 70 2 11 7 49 11 85 4 36 9 73 10 82 2 9 6 41 10 70 3 29 8 67 10 83
2 17 7 55 10 85 3 30 8 66 10 80 5 27 11 66 20 145 3 28 9 66 12 85 3 19 6 53
8 75 2 22 6 56 9 75 8 45 16 106 20 150 8 73 17 146 21 160 2 8 6 42 10 75 9
98 -7 90 187 89 95 0 178 1 183 3 6 2 10 115 9 316 l-1 312 -394 2 c-217 1
-447 3 -511 3 l-117 0 45 103 c25 56 49 111 54 122 5 11 20 45 33 75 25 57 41
70 235 175 20 11 39 23 40 28 2 4 8 7 12 7 7 0 230 127 350 199 19 11 42 24
50 28 8 3 17 9 20 12 3 4 16 12 30 18 14 7 48 26 75 43 28 17 58 33 68 37 9 3
17 10 17 16 0 6 3 8 6 4 4 -3 26 7 50 24 24 16 44 26 44 22 0 -4 4 -3 8 3 4 5
30 23 57 38 28 16 70 40 95 54 25 13 57 34 73 44 15 11 27 16 27 11 0 -4 4 -3
8 3 6 9 119 77 184 111 31 16 33 9 -35 156 -26 53 -50 97 -55 97 -4 0 -13 -5
-20 -12z"/>
</g>
</svg>
